<mxfile host="app.diagrams.net" agent="Mozilla/5.0 (Macintosh; Intel Mac OS X 10_15_7) AppleWebKit/605.1.15 (KHTML, like Gecko) Version/18.4 Safari/605.1.15" version="26.2.12">
  <diagram name="Page-1" id="ZfTFR4OxNcVLB4fTvURT">
    <mxGraphModel dx="1115" dy="800" grid="1" gridSize="10" guides="1" tooltips="1" connect="1" arrows="1" fold="1" page="1" pageScale="1" pageWidth="1169" pageHeight="1654" background="none" math="0" shadow="0">
      <root>
        <mxCell id="0" />
        <mxCell id="1" parent="0" />
        <mxCell id="Es6ZtHFfuXmDRuMycndh-7" value="" style="edgeStyle=orthogonalEdgeStyle;rounded=0;orthogonalLoop=1;jettySize=auto;html=1;" parent="1" source="Es6ZtHFfuXmDRuMycndh-1" target="Es6ZtHFfuXmDRuMycndh-6" edge="1">
          <mxGeometry relative="1" as="geometry" />
        </mxCell>
        <mxCell id="Es6ZtHFfuXmDRuMycndh-1" value="Start" style="rounded=1;whiteSpace=wrap;html=1;fillColor=#cdeb8b;strokeColor=#36393d;" parent="1" vertex="1">
          <mxGeometry x="170" y="40" width="130" height="50" as="geometry" />
        </mxCell>
        <mxCell id="Es6ZtHFfuXmDRuMycndh-9" value="" style="edgeStyle=orthogonalEdgeStyle;rounded=0;orthogonalLoop=1;jettySize=auto;html=1;" parent="1" source="Es6ZtHFfuXmDRuMycndh-6" target="Es6ZtHFfuXmDRuMycndh-8" edge="1">
          <mxGeometry relative="1" as="geometry" />
        </mxCell>
        <mxCell id="Es6ZtHFfuXmDRuMycndh-11" value="" style="edgeStyle=orthogonalEdgeStyle;rounded=0;orthogonalLoop=1;jettySize=auto;html=1;" parent="1" source="Es6ZtHFfuXmDRuMycndh-6" target="Es6ZtHFfuXmDRuMycndh-10" edge="1">
          <mxGeometry relative="1" as="geometry" />
        </mxCell>
        <mxCell id="Es6ZtHFfuXmDRuMycndh-6" value="Height &amp;gt;= 120cm?" style="rhombus;whiteSpace=wrap;html=1;" parent="1" vertex="1">
          <mxGeometry x="157.5" y="140" width="155" height="80" as="geometry" />
        </mxCell>
        <mxCell id="32--zICXPGAXNRWFbzZd-4" value="" style="edgeStyle=orthogonalEdgeStyle;rounded=0;orthogonalLoop=1;jettySize=auto;html=1;" edge="1" parent="1" source="Es6ZtHFfuXmDRuMycndh-8" target="32--zICXPGAXNRWFbzZd-3">
          <mxGeometry relative="1" as="geometry" />
        </mxCell>
        <mxCell id="Es6ZtHFfuXmDRuMycndh-8" value="Can ride" style="whiteSpace=wrap;html=1;" parent="1" vertex="1">
          <mxGeometry x="320" y="240" width="120" height="60" as="geometry" />
        </mxCell>
        <mxCell id="Es6ZtHFfuXmDRuMycndh-10" value="Can&#39;t ride" style="whiteSpace=wrap;html=1;" parent="1" vertex="1">
          <mxGeometry x="30" y="240" width="120" height="60" as="geometry" />
        </mxCell>
        <mxCell id="Es6ZtHFfuXmDRuMycndh-12" value="Yes" style="text;html=1;align=center;verticalAlign=middle;resizable=0;points=[];autosize=1;strokeColor=none;fillColor=none;" parent="1" vertex="1">
          <mxGeometry x="330" y="148" width="40" height="30" as="geometry" />
        </mxCell>
        <mxCell id="Es6ZtHFfuXmDRuMycndh-13" value="No" style="text;html=1;align=center;verticalAlign=middle;resizable=0;points=[];autosize=1;strokeColor=none;fillColor=none;" parent="1" vertex="1">
          <mxGeometry x="110" y="158" width="40" height="30" as="geometry" />
        </mxCell>
        <mxCell id="32--zICXPGAXNRWFbzZd-6" value="" style="edgeStyle=orthogonalEdgeStyle;rounded=0;orthogonalLoop=1;jettySize=auto;html=1;" edge="1" parent="1" source="32--zICXPGAXNRWFbzZd-3" target="32--zICXPGAXNRWFbzZd-5">
          <mxGeometry relative="1" as="geometry" />
        </mxCell>
        <mxCell id="32--zICXPGAXNRWFbzZd-8" value="" style="edgeStyle=orthogonalEdgeStyle;rounded=0;orthogonalLoop=1;jettySize=auto;html=1;" edge="1" parent="1" source="32--zICXPGAXNRWFbzZd-3" target="32--zICXPGAXNRWFbzZd-7">
          <mxGeometry relative="1" as="geometry" />
        </mxCell>
        <mxCell id="32--zICXPGAXNRWFbzZd-13" value="" style="edgeStyle=orthogonalEdgeStyle;rounded=0;orthogonalLoop=1;jettySize=auto;html=1;" edge="1" parent="1" source="32--zICXPGAXNRWFbzZd-3" target="32--zICXPGAXNRWFbzZd-12">
          <mxGeometry relative="1" as="geometry" />
        </mxCell>
        <mxCell id="32--zICXPGAXNRWFbzZd-40" style="edgeStyle=orthogonalEdgeStyle;rounded=0;orthogonalLoop=1;jettySize=auto;html=1;entryX=0.5;entryY=0;entryDx=0;entryDy=0;" edge="1" parent="1" source="32--zICXPGAXNRWFbzZd-3" target="32--zICXPGAXNRWFbzZd-41">
          <mxGeometry relative="1" as="geometry">
            <mxPoint x="830" y="410" as="targetPoint" />
          </mxGeometry>
        </mxCell>
        <mxCell id="32--zICXPGAXNRWFbzZd-3" value="age" style="rhombus;whiteSpace=wrap;html=1;" vertex="1" parent="1">
          <mxGeometry x="340" y="370" width="80" height="80" as="geometry" />
        </mxCell>
        <mxCell id="32--zICXPGAXNRWFbzZd-5" value="+5$" style="whiteSpace=wrap;html=1;" vertex="1" parent="1">
          <mxGeometry x="80" y="470" width="120" height="60" as="geometry" />
        </mxCell>
        <mxCell id="32--zICXPGAXNRWFbzZd-7" value="+12$" style="whiteSpace=wrap;html=1;" vertex="1" parent="1">
          <mxGeometry x="550" y="470" width="120" height="60" as="geometry" />
        </mxCell>
        <mxCell id="32--zICXPGAXNRWFbzZd-10" value="Over 18" style="text;html=1;align=center;verticalAlign=middle;resizable=0;points=[];autosize=1;strokeColor=none;fillColor=none;" vertex="1" parent="1">
          <mxGeometry x="485" y="388" width="70" height="30" as="geometry" />
        </mxCell>
        <mxCell id="32--zICXPGAXNRWFbzZd-11" value="Under 12" style="text;html=1;align=center;verticalAlign=middle;resizable=0;points=[];autosize=1;strokeColor=none;fillColor=none;" vertex="1" parent="1">
          <mxGeometry x="205" y="388" width="70" height="30" as="geometry" />
        </mxCell>
        <mxCell id="32--zICXPGAXNRWFbzZd-12" value="+7$" style="whiteSpace=wrap;html=1;" vertex="1" parent="1">
          <mxGeometry x="320" y="480" width="120" height="60" as="geometry" />
        </mxCell>
        <mxCell id="32--zICXPGAXNRWFbzZd-14" value="Between 12-18" style="text;html=1;align=center;verticalAlign=middle;resizable=0;points=[];autosize=1;strokeColor=none;fillColor=none;" vertex="1" parent="1">
          <mxGeometry x="275" y="450" width="100" height="30" as="geometry" />
        </mxCell>
        <mxCell id="32--zICXPGAXNRWFbzZd-33" value="" style="edgeStyle=orthogonalEdgeStyle;rounded=0;orthogonalLoop=1;jettySize=auto;html=1;" edge="1" parent="1" source="32--zICXPGAXNRWFbzZd-25" target="32--zICXPGAXNRWFbzZd-32">
          <mxGeometry relative="1" as="geometry" />
        </mxCell>
        <mxCell id="32--zICXPGAXNRWFbzZd-36" value="" style="edgeStyle=orthogonalEdgeStyle;rounded=0;orthogonalLoop=1;jettySize=auto;html=1;" edge="1" parent="1" target="32--zICXPGAXNRWFbzZd-35">
          <mxGeometry relative="1" as="geometry">
            <mxPoint x="310" y="710" as="sourcePoint" />
            <Array as="points">
              <mxPoint x="200" y="710" />
              <mxPoint x="200" y="900" />
            </Array>
          </mxGeometry>
        </mxCell>
        <mxCell id="32--zICXPGAXNRWFbzZd-25" value="want photos?" style="rhombus;whiteSpace=wrap;html=1;" vertex="1" parent="1">
          <mxGeometry x="310" y="660" width="120" height="100" as="geometry" />
        </mxCell>
        <mxCell id="32--zICXPGAXNRWFbzZd-27" value="" style="endArrow=classic;html=1;rounded=0;entryX=0.5;entryY=0;entryDx=0;entryDy=0;" edge="1" parent="1" target="32--zICXPGAXNRWFbzZd-25">
          <mxGeometry width="50" height="50" relative="1" as="geometry">
            <mxPoint x="370" y="540" as="sourcePoint" />
            <mxPoint x="420" y="490" as="targetPoint" />
          </mxGeometry>
        </mxCell>
        <mxCell id="32--zICXPGAXNRWFbzZd-29" value="" style="endArrow=classic;html=1;rounded=0;exitX=0.5;exitY=1;exitDx=0;exitDy=0;entryX=0;entryY=0.5;entryDx=0;entryDy=0;" edge="1" parent="1" source="32--zICXPGAXNRWFbzZd-5" target="32--zICXPGAXNRWFbzZd-25">
          <mxGeometry width="50" height="50" relative="1" as="geometry">
            <mxPoint x="370" y="540" as="sourcePoint" />
            <mxPoint x="130" y="580" as="targetPoint" />
            <Array as="points">
              <mxPoint x="140" y="610" />
              <mxPoint x="310" y="610" />
            </Array>
          </mxGeometry>
        </mxCell>
        <mxCell id="32--zICXPGAXNRWFbzZd-31" value="" style="endArrow=classic;html=1;rounded=0;entryX=1;entryY=0.5;entryDx=0;entryDy=0;" edge="1" parent="1" target="32--zICXPGAXNRWFbzZd-25">
          <mxGeometry width="50" height="50" relative="1" as="geometry">
            <mxPoint x="610" y="530" as="sourcePoint" />
            <mxPoint x="610" y="630" as="targetPoint" />
            <Array as="points">
              <mxPoint x="610" y="610" />
              <mxPoint x="430" y="610" />
            </Array>
          </mxGeometry>
        </mxCell>
        <mxCell id="32--zICXPGAXNRWFbzZd-32" value="+3$" style="rounded=1;whiteSpace=wrap;html=1;" vertex="1" parent="1">
          <mxGeometry x="510" y="680" width="120" height="60" as="geometry" />
        </mxCell>
        <mxCell id="32--zICXPGAXNRWFbzZd-34" value="Yes" style="text;html=1;align=center;verticalAlign=middle;resizable=0;points=[];autosize=1;strokeColor=none;fillColor=none;" vertex="1" parent="1">
          <mxGeometry x="450" y="678" width="40" height="30" as="geometry" />
        </mxCell>
        <mxCell id="32--zICXPGAXNRWFbzZd-35" value="The total bill is $x" style="rounded=1;whiteSpace=wrap;html=1;" vertex="1" parent="1">
          <mxGeometry x="320" y="870" width="120" height="60" as="geometry" />
        </mxCell>
        <mxCell id="32--zICXPGAXNRWFbzZd-37" value="No" style="text;html=1;align=center;verticalAlign=middle;resizable=0;points=[];autosize=1;strokeColor=none;fillColor=none;" vertex="1" parent="1">
          <mxGeometry x="240" y="678" width="40" height="30" as="geometry" />
        </mxCell>
        <mxCell id="32--zICXPGAXNRWFbzZd-38" value="" style="endArrow=classic;html=1;rounded=0;entryX=0.5;entryY=0;entryDx=0;entryDy=0;" edge="1" parent="1" target="32--zICXPGAXNRWFbzZd-35">
          <mxGeometry width="50" height="50" relative="1" as="geometry">
            <mxPoint x="560" y="740" as="sourcePoint" />
            <mxPoint x="610" y="690" as="targetPoint" />
            <Array as="points">
              <mxPoint x="560" y="850" />
              <mxPoint x="380" y="850" />
            </Array>
          </mxGeometry>
        </mxCell>
        <mxCell id="32--zICXPGAXNRWFbzZd-41" value="+0$" style="rounded=0;whiteSpace=wrap;html=1;" vertex="1" parent="1">
          <mxGeometry x="760" y="470" width="120" height="60" as="geometry" />
        </mxCell>
        <mxCell id="32--zICXPGAXNRWFbzZd-42" value="Aged 45-55" style="text;html=1;align=center;verticalAlign=middle;resizable=0;points=[];autosize=1;strokeColor=none;fillColor=none;" vertex="1" parent="1">
          <mxGeometry x="725" y="378" width="90" height="30" as="geometry" />
        </mxCell>
      </root>
    </mxGraphModel>
  </diagram>
</mxfile>
